<svg width="611" height="556" viewBox="0 0 611 556" fill="none" xmlns="http://www.w3.org/2000/svg">
<path d="M89.9475 509.822C209.15 571.025 402.401 571.025 521.603 509.822C640.806 448.619 640.792 349.397 521.603 288.194C402.415 226.991 209.15 226.991 89.9475 288.194C-29.2551 349.397 -29.2409 448.619 89.9475 509.822Z" fill="#F5F5F5"/>
<path d="M523.239 358.975C546.473 358.975 565.307 350.154 565.307 339.273C565.307 328.392 546.473 319.571 523.239 319.571C500.006 319.571 481.172 328.392 481.172 339.273C481.172 350.154 500.006 358.975 523.239 358.975Z" fill="#E6E6E6"/>
<path d="M89.2077 474.235C110.508 474.235 127.775 466.147 127.775 456.17C127.775 446.192 110.508 438.104 89.2077 438.104C67.9074 438.104 50.6401 446.192 50.6401 456.17C50.6401 466.147 67.9074 474.235 89.2077 474.235Z" fill="#E6E6E6"/>
<path d="M375.556 508.969C397.72 508.969 415.688 500.549 415.688 490.162C415.688 479.775 397.72 471.355 375.556 471.355C353.391 471.355 335.423 479.775 335.423 490.162C335.423 500.549 353.391 508.969 375.556 508.969Z" fill="#E6E6E6"/>
<path d="M176.358 418.975C198.523 418.975 216.491 410.555 216.491 400.168C216.491 389.781 198.523 381.361 176.358 381.361C154.194 381.361 136.226 389.781 136.226 400.168C136.226 410.555 154.194 418.975 176.358 418.975Z" fill="#E6E6E6"/>
<path d="M412.53 293.284C413.512 281.692 440.542 238.205 448.807 231.466C457.073 224.726 471.669 207.695 465.381 198.019C459.093 188.343 440.613 192.649 423.257 222.81C409.799 246.204 405.616 297.94 405.616 297.94L412.53 293.284Z" fill="#02897A"/>
<path d="M408.831 292.193H408.717C408.625 292.18 408.537 292.148 408.457 292.1C408.378 292.053 408.309 291.99 408.254 291.916C408.2 291.841 408.161 291.757 408.141 291.668C408.12 291.579 408.118 291.486 408.134 291.396C415.774 242.848 432.006 212.561 457.755 198.802C457.921 198.713 458.117 198.692 458.298 198.745C458.388 198.771 458.472 198.814 458.545 198.872C458.617 198.929 458.678 199.001 458.723 199.082C458.768 199.162 458.796 199.251 458.806 199.343C458.816 199.434 458.807 199.527 458.781 199.615C458.755 199.703 458.711 199.785 458.652 199.857C458.593 199.929 458.521 199.988 458.438 200.032C433.101 213.568 417.111 243.533 409.528 291.62C409.498 291.78 409.412 291.926 409.285 292.03C409.158 292.135 408.997 292.193 408.831 292.193Z" fill="white"/>
<path d="M415.247 237.045C415.247 237.045 436.942 200.186 454.91 183.309C464.869 173.954 470.986 167.928 470.445 160.852C470.047 155.483 465.509 152.616 455.75 154.98C436.302 159.678 425.874 179.044 419.159 200.731C414.394 216.001 415.247 237.045 415.247 237.045Z" fill="#37474F"/>
<path opacity="0.2" d="M415.247 237.045C415.247 237.045 436.942 200.186 454.91 183.309C464.869 173.954 470.986 167.928 470.445 160.852C470.047 155.483 465.509 152.616 455.75 154.98C436.302 159.678 425.874 179.044 419.159 200.731C414.394 216.001 415.247 237.045 415.247 237.045Z" fill="#00FFE3"/>
<path d="M417.765 230.99H417.666C417.478 230.959 417.31 230.857 417.198 230.705C417.086 230.553 417.039 230.365 417.068 230.179C424.793 182.274 454.156 164.236 462.977 159.846C463.145 159.763 463.339 159.748 463.518 159.806C463.696 159.864 463.844 159.989 463.93 160.153C463.973 160.235 464 160.324 464.008 160.416C464.016 160.507 464.005 160.6 463.976 160.687C463.946 160.774 463.9 160.855 463.838 160.924C463.776 160.994 463.701 161.05 463.617 161.09C454.953 165.411 426.102 183.141 418.477 230.403C418.449 230.568 418.362 230.719 418.232 230.827C418.101 230.934 417.936 230.992 417.765 230.99Z" fill="white"/>
<path d="M536.769 128.244L532.074 119.575L535.844 108.864V102.306L524.292 108.864V115.422L529.257 123.895C529.335 124.028 529.455 124.131 529.599 124.189L536.769 128.244Z" fill="#11B5E4"/>
<path opacity="0.1" d="M536.769 128.244L532.074 119.575L535.844 108.864V102.306L524.292 108.864V115.422L529.257 123.895C529.335 124.028 529.455 124.131 529.599 124.189L536.769 128.244Z" fill="black"/>
<path d="M509.966 87.54L541.776 69.3623C542.851 68.8311 544.037 68.5544 545.24 68.5544C546.443 68.5544 547.63 68.8311 548.705 69.3623L551.55 70.9704C552.562 71.6142 553.404 72.4847 554.007 73.5104C554.611 74.5362 554.958 75.6879 555.021 76.8711V102.208C554.955 103.39 554.606 104.541 554.003 105.566C553.4 106.591 552.559 107.462 551.55 108.109L519.711 126.286C518.636 126.818 517.45 127.094 516.247 127.094C515.044 127.094 513.858 126.818 512.783 126.286L509.938 124.678C508.929 124.032 508.09 123.161 507.49 122.135C506.889 121.11 506.543 119.959 506.481 118.778V93.4128C506.554 92.2342 506.908 91.089 507.513 90.069C508.118 89.0491 508.958 88.1829 509.966 87.54Z" fill="#11B5E4"/>
<path opacity="0.3" d="M509.966 87.54L541.776 69.3623C542.851 68.8311 544.037 68.5544 545.24 68.5544C546.443 68.5544 547.63 68.8311 548.705 69.3623L551.55 70.9704C552.562 71.6142 553.404 72.4847 554.007 73.5104C554.611 74.5362 554.958 75.6879 555.021 76.8711V102.208C554.955 103.39 554.606 104.541 554.003 105.566C553.4 106.591 552.559 107.462 551.55 108.109L519.711 126.286C518.636 126.818 517.45 127.094 516.247 127.094C515.044 127.094 513.858 126.818 512.783 126.286L509.938 124.678C508.929 124.032 508.09 123.161 507.49 122.135C506.889 121.11 506.543 119.959 506.481 118.778V93.4128C506.554 92.2342 506.908 91.089 507.513 90.069C508.118 89.0491 508.958 88.1829 509.966 87.54Z" fill="white"/>
<path d="M519.726 126.259C517.805 127.335 516.254 126.468 516.254 124.287V98.9501C516.321 97.7676 516.669 96.6172 517.273 95.592C517.876 94.5668 518.716 93.6957 519.726 93.0493L551.564 74.8716C553.485 73.781 555.035 74.6619 555.035 76.8432V102.18C554.969 103.363 554.62 104.513 554.017 105.538C553.414 106.563 552.574 107.435 551.564 108.081" fill="#11B5E4"/>
<path d="M506.509 118.75C506.572 119.931 506.917 121.082 507.518 122.107C508.119 123.133 508.958 124.004 509.966 124.65L512.812 126.258C513.788 126.74 514.857 127.013 515.948 127.059C517.039 127.104 518.128 126.922 519.142 126.524C517.52 127.139 516.297 126.23 516.297 124.287V98.95C516.343 97.764 516.696 96.6092 517.321 95.5941L507.562 90.001C506.941 91.0173 506.594 92.1722 506.552 93.3569L506.509 118.75Z" fill="#11B5E4"/>
<path opacity="0.1" d="M506.509 118.75C506.572 119.931 506.917 121.082 507.518 122.107C508.119 123.133 508.958 124.004 509.966 124.65L512.812 126.258C513.788 126.74 514.857 127.013 515.948 127.059C517.039 127.104 518.128 126.922 519.142 126.524C517.52 127.139 516.297 126.23 516.297 124.287V98.95C516.343 97.764 516.696 96.6092 517.321 95.5941L507.562 90.001C506.941 91.0173 506.594 92.1722 506.552 93.3569L506.509 118.75Z" fill="black"/>
<path d="M531.533 119.533L536.498 127.992C536.572 128.111 536.678 128.208 536.805 128.27C536.931 128.333 537.073 128.359 537.214 128.346C537.355 128.333 537.49 128.281 537.602 128.196C537.715 128.111 537.8 127.997 537.85 127.866L543.099 112.975V106.417L531.533 112.975V119.533Z" fill="#11B5E4"/>
<path d="M535.659 110.877L532.102 109.954C528.717 109.074 524.676 107.158 524.676 102.865C524.847 101.116 525.434 99.4313 526.391 97.947C527.347 96.4627 528.646 95.2207 530.182 94.3217C530.685 93.9677 531.276 93.7531 531.893 93.7002C532.509 93.6473 533.129 93.7581 533.687 94.021C534.245 94.2838 534.721 94.6892 535.066 95.1946C535.41 95.7001 535.61 96.2871 535.645 96.8945C536 94.0979 538.305 89.7073 541.108 88.1133C544.152 86.3934 546.613 87.4141 546.613 90.4065C546.613 94.6852 542.587 101.201 539.201 105.927L535.659 110.877Z" fill="white"/>
<path d="M65.3359 194.788L97.1745 176.68C98.2473 176.143 99.4344 175.862 100.639 175.862C101.843 175.862 103.03 176.143 104.103 176.68L106.948 178.274C107.954 178.923 108.791 179.795 109.392 180.82C109.992 181.845 110.339 182.994 110.405 184.175V209.512C110.339 210.693 109.992 211.842 109.392 212.867C108.791 213.892 107.954 214.764 106.948 215.413L75.1521 233.521C74.0768 234.058 72.8874 234.339 71.6808 234.339C70.4743 234.339 69.2849 234.058 68.2096 233.521L65.3644 231.927C64.342 231.278 63.4913 230.399 62.8828 229.363C62.2743 228.328 61.9253 227.164 61.8647 225.97V200.689C61.9275 199.506 62.2749 198.354 62.8783 197.328C63.4817 196.302 64.3239 195.432 65.3359 194.788Z" fill="#FF7800"/>
<path opacity="0.3" d="M65.3359 194.788L97.1745 176.68C98.2473 176.143 99.4344 175.862 100.639 175.862C101.843 175.862 103.03 176.143 104.103 176.68L106.948 178.274C107.954 178.923 108.791 179.795 109.392 180.82C109.992 181.845 110.339 182.994 110.405 184.175V209.512C110.339 210.693 109.992 211.842 109.392 212.867C108.791 213.892 107.954 214.764 106.948 215.413L75.1521 233.521C74.0768 234.058 72.8874 234.339 71.6808 234.339C70.4743 234.339 69.2849 234.058 68.2096 233.521L65.3644 231.927C64.342 231.278 63.4913 230.399 62.8828 229.363C62.2743 228.328 61.9253 227.164 61.8647 225.97V200.689C61.9275 199.506 62.2749 198.354 62.8783 197.328C63.4817 196.302 64.3239 195.432 65.3359 194.788Z" fill="white"/>
<path d="M92.1241 235.52L87.4294 226.837L91.2136 216.126V209.568L79.6476 216.182V222.74L84.6268 231.13C84.702 231.259 84.8164 231.362 84.954 231.424L92.1241 235.52Z" fill="#FF7800"/>
<path opacity="0.1" d="M92.1241 235.52L87.4294 226.837L91.2136 216.126V209.568L79.6476 216.182V222.74L84.6268 231.13C84.702 231.259 84.8164 231.362 84.954 231.424L92.1241 235.52Z" fill="black"/>
<path d="M75.1521 233.521C73.2315 234.611 71.6808 233.731 71.6808 231.549V206.212C71.747 205.032 72.0959 203.883 72.6991 202.86C73.3023 201.837 74.1428 200.969 75.1521 200.326L107.005 182.148C108.911 181.071 110.462 181.952 110.462 184.119V209.456C110.396 210.637 110.049 211.787 109.448 212.812C108.848 213.836 108.011 214.708 107.005 215.357" fill="#FF7800"/>
<path d="M61.8647 225.97C61.9309 227.153 62.2797 228.303 62.8828 229.328C63.4859 230.353 64.3263 231.224 65.3359 231.871L68.1812 233.465C69.1598 233.946 70.2304 234.219 71.3234 234.267C72.4164 234.315 73.5076 234.137 74.5261 233.745C72.8901 234.346 71.6808 233.437 71.6808 231.493V206.212C71.7226 205.028 72.0702 203.873 72.6909 202.856L62.9459 197.333C62.3202 198.348 61.9677 199.503 61.9216 200.689L61.8647 225.97Z" fill="#FF7800"/>
<path opacity="0.1" d="M61.8647 225.97C61.9309 227.153 62.2797 228.303 62.8828 229.328C63.4859 230.353 64.3263 231.224 65.3359 231.871L68.1812 233.465C69.1598 233.946 70.2304 234.219 71.3234 234.267C72.4164 234.315 73.5076 234.137 74.5261 233.745C72.8901 234.346 71.6808 233.437 71.6808 231.493V206.212C71.7226 205.028 72.0702 203.873 72.6909 202.856L62.9459 197.333C62.3202 198.348 61.9677 199.503 61.9216 200.689L61.8647 225.97Z" fill="black"/>
<path d="M86.9031 226.795L91.868 235.185C91.9392 235.305 92.0439 235.402 92.1696 235.466C92.2954 235.529 92.437 235.556 92.5777 235.542C92.7183 235.529 92.8522 235.477 92.9634 235.391C93.0747 235.305 93.1586 235.19 93.2053 235.059L98.4548 220.167V213.609L86.9031 220.167V226.795Z" fill="#FF7800"/>
<path d="M78.9932 211.666C78.0335 212.273 77.2365 213.098 76.6694 214.071C76.1024 215.045 75.782 216.138 75.7353 217.259C75.7353 219.3 77.158 220.055 78.9932 219.105C79.9464 218.491 80.7384 217.664 81.3046 216.692C81.8708 215.72 82.1951 214.63 82.251 213.511C82.2652 211.47 80.8426 210.589 78.9932 211.666Z" fill="white"/>
<path d="M91.0144 204.828C90.057 205.439 89.2609 206.264 88.692 207.237C88.1231 208.209 87.7976 209.301 87.7424 210.421C87.7424 212.463 89.165 213.288 91.0144 212.267C91.9677 211.653 92.7597 210.826 93.3259 209.854C93.8921 208.882 94.2164 207.793 94.2723 206.674C94.2723 204.632 92.807 203.807 91.0144 204.828Z" fill="white"/>
<path d="M103.021 198.004C102.068 198.618 101.276 199.445 100.71 200.417C100.144 201.389 99.8196 202.479 99.7636 203.598C99.7636 205.639 101.186 206.394 103.021 205.443C103.981 204.836 104.778 204.011 105.345 203.038C105.912 202.064 106.233 200.971 106.279 199.85C106.279 197.795 104.828 196.97 103.021 198.004Z" fill="white"/>
<path d="M402.941 11.2361L264.633 89.6798C262.84 90.8296 261.349 92.3782 260.278 94.2001C259.208 96.0221 258.59 98.0662 258.473 100.167V401.064C258.473 404.923 261.233 406.489 264.633 404.559L402.941 326.116C404.734 324.966 406.226 323.417 407.296 321.595C408.366 319.773 408.985 317.729 409.101 315.628V14.7318C409.101 10.8725 406.341 9.30642 402.941 11.2361Z" fill="#37474F"/>
<path d="M264.633 89.6798L402.941 11.236C405.986 9.51616 408.504 10.5928 409.002 13.5991C408.721 11.7077 408.036 9.89617 406.991 8.28382C405.947 6.67147 404.566 5.29486 402.941 4.24463L397.919 1.44806C396.011 0.496111 393.9 0 391.759 0C389.619 0 387.508 0.496111 385.599 1.44806L247.291 79.8498C245.471 80.9654 243.973 82.5202 242.938 84.3663L260.28 94.1543C261.32 92.3236 262.819 90.7837 264.633 89.6798Z" fill="#455A64"/>
<path d="M241.131 391.22C241.245 393.321 241.863 395.366 242.933 397.188C244.004 399.01 245.497 400.559 247.291 401.707L252.313 404.503C254.049 405.363 255.951 405.852 257.893 405.936C259.835 406.021 261.774 405.699 263.58 404.993C260.735 406.069 258.473 404.461 258.473 401.008V100.125C258.544 98.0153 259.166 95.9592 260.28 94.1542L242.938 84.3662C241.827 86.1725 241.205 88.2278 241.131 90.3369V391.22Z" fill="#263238"/>
<path d="M267.948 127.154L399.627 52.4713C401.661 51.3107 403.326 52.2476 403.326 54.5687V282.363C403.253 283.623 402.88 284.849 402.238 285.942C401.595 287.035 400.701 287.964 399.627 288.655L267.948 363.324C265.913 364.484 264.249 363.547 264.249 361.226V133.446C264.317 132.185 264.688 130.957 265.331 129.864C265.973 128.77 266.87 127.842 267.948 127.154Z" fill="#FAFAFA"/>
<path d="M332.393 62.1336C331.764 62.5396 331.24 63.0851 330.865 63.7263C330.489 64.3674 330.272 65.0863 330.23 65.825C330.23 67.2233 331.198 67.7407 332.393 67.0555C333.024 66.6512 333.548 66.106 333.924 65.4645C334.3 64.823 334.516 64.1033 334.555 63.3641C334.555 62.0077 333.588 61.4624 332.393 62.1336Z" fill="#263238"/>
<path d="M311.921 83.7791C310.672 84.5957 309.635 85.6891 308.893 86.9714C308.152 88.2537 307.727 89.689 307.653 91.1621C307.653 93.8747 309.588 94.9794 311.921 93.623C313.185 92.815 314.236 91.7252 314.99 90.4423C315.744 89.1594 316.179 87.7196 316.26 86.2401C316.26 83.5274 314.311 82.4228 311.921 83.7791Z" fill="#263238"/>
<path d="M322.52 82.8561C322.52 84.6739 323.942 85.3591 325.607 84.3942L354.06 68.2161C354.938 67.6727 355.673 66.9339 356.207 66.0594C356.741 65.185 357.058 64.1994 357.132 63.1823C357.132 61.3785 355.71 60.6933 354.06 61.6581L325.607 77.8363C324.727 78.3759 323.99 79.1116 323.453 79.9837C322.917 80.8559 322.597 81.8399 322.52 82.8561Z" fill="#263238"/>
<path d="M250.719 136.159C251.731 136.803 252.574 137.673 253.177 138.699C253.78 139.725 254.128 140.876 254.191 142.06C254.191 144.227 252.64 145.108 250.719 144.031C249.712 143.38 248.875 142.506 248.274 141.478C247.674 140.451 247.327 139.3 247.262 138.116C247.291 135.949 248.813 135.082 250.719 136.159Z" fill="#37474F"/>
<path d="M250.719 162.404C251.729 163.051 252.569 163.922 253.173 164.947C253.776 165.972 254.124 167.123 254.191 168.305C254.191 170.486 252.64 171.367 250.719 170.277C249.728 169.632 248.902 168.77 248.307 167.758C247.712 166.746 247.364 165.612 247.291 164.446C247.291 162.209 248.813 161.328 250.719 162.404Z" fill="#37474F"/>
<path d="M249.652 136.676C250.662 137.322 251.502 138.193 252.106 139.219C252.709 140.244 253.057 141.394 253.124 142.577C253.124 144.758 251.573 145.639 249.652 144.548C248.644 143.9 247.805 143.029 247.202 142.004C246.599 140.979 246.25 139.829 246.181 138.648C246.181 136.48 247.746 135.599 249.652 136.676Z" fill="#455A64"/>
<path d="M249.652 162.936C250.662 163.582 251.502 164.453 252.106 165.478C252.709 166.504 253.057 167.654 253.124 168.837C253.124 171.018 251.573 171.899 249.652 170.808C248.644 170.16 247.805 169.289 247.202 168.264C246.599 167.239 246.25 166.089 246.181 164.907C246.181 162.726 247.746 161.845 249.652 162.936Z" fill="#455A64"/>
<path d="M333.787 336.043C331.3 337.639 329.232 339.789 327.749 342.318C326.265 344.847 325.41 347.685 325.251 350.6C325.251 355.969 329.078 358.136 333.787 355.466C336.274 353.866 338.343 351.714 339.826 349.183C341.309 346.651 342.164 343.812 342.323 340.895C342.337 335.526 338.51 333.359 333.787 336.043Z" fill="#263238"/>
<path d="M295.248 360.08C294.039 360.08 293.911 358.682 293.911 358.178V130.398C293.985 129.261 294.326 128.155 294.905 127.168C295.485 126.181 296.289 125.339 297.254 124.707L428.933 50.0246C429.326 49.7935 429.77 49.6592 430.228 49.6331C431.437 49.6331 431.565 50.9474 431.565 51.5207V279.315C431.491 280.451 431.151 281.554 430.571 282.539C429.991 283.524 429.187 284.364 428.222 284.992L296.543 359.674C296.154 359.917 295.708 360.057 295.248 360.08Z" fill="white" stroke="#141414" stroke-miterlimit="10"/>
<path d="M430.228 50.3321C430.768 50.3321 430.853 51.0732 430.853 51.5207V279.315C430.782 280.329 430.475 281.313 429.958 282.193C429.44 283.073 428.724 283.824 427.866 284.391L296.187 359.073C295.904 359.249 295.582 359.354 295.248 359.381C294.707 359.381 294.622 358.626 294.622 358.178V130.398C294.694 129.384 295 128.4 295.518 127.52C296.036 126.64 296.751 125.889 297.609 125.322L429.289 50.6397C429.569 50.4583 429.893 50.3523 430.228 50.3321ZM430.228 48.9338C429.643 48.953 429.075 49.1217 428.577 49.4232L296.898 124.106C295.821 124.794 294.924 125.722 294.281 126.816C293.638 127.909 293.268 129.137 293.199 130.398V358.178C293.199 359.828 294.039 360.779 295.248 360.779C295.833 360.754 296.402 360.581 296.898 360.276L428.577 285.607C429.654 284.918 430.55 283.99 431.193 282.896C431.835 281.803 432.207 280.576 432.276 279.315V51.5207C432.276 49.8847 431.437 48.9338 430.228 48.9338Z" fill="#37474F" stroke="#141414" stroke-miterlimit="10"/>
<path d="M432.233 51.5206C432.233 49.1995 430.583 48.2626 428.535 49.4232L296.856 124.106C295.778 124.794 294.881 125.722 294.239 126.816C293.596 127.909 293.225 129.137 293.157 130.398V149.065L432.233 70.1877V51.5206Z" fill="#37474F"/>
<path opacity="0.1" d="M432.233 51.5206C432.233 49.1995 430.583 48.2626 428.535 49.4232L296.856 124.106C295.778 124.794 294.881 125.722 294.239 126.816C293.596 127.909 293.225 129.137 293.157 130.398V149.065L432.233 70.1877V51.5206Z" fill="black"/>
<path d="M307.71 128.412C307.476 128.325 307.224 128.296 306.976 128.328C306.728 128.36 306.491 128.451 306.288 128.594C305.556 129.071 304.947 129.708 304.507 130.455C304.068 131.202 303.811 132.039 303.755 132.901C303.72 133.148 303.752 133.401 303.85 133.632C303.947 133.864 304.106 134.065 304.31 134.215C304.544 134.309 304.798 134.341 305.048 134.307C305.298 134.272 305.535 134.173 305.733 134.019C306.46 133.542 307.065 132.906 307.502 132.162C307.938 131.417 308.195 130.584 308.251 129.726C308.288 129.48 308.258 129.228 308.163 128.997C308.067 128.766 307.911 128.564 307.71 128.412Z" fill="white"/>
<path d="M310.712 123.644L310.399 123.826V123.197C310.399 122.316 309.773 121.952 308.976 122.4L303.001 125.783C302.59 126.045 302.248 126.397 302.001 126.813C301.754 127.228 301.609 127.694 301.579 128.175V128.818L301.251 128.999C300.705 129.348 300.251 129.819 299.924 130.373C299.598 130.927 299.409 131.548 299.374 132.188V137.879C299.374 139.053 300.213 139.543 301.251 138.955L310.684 133.6C311.231 133.249 311.686 132.776 312.012 132.22C312.338 131.663 312.527 131.039 312.561 130.398V124.679C312.59 123.532 311.75 123.057 310.712 123.644ZM306.273 134.942C305.814 135.218 305.289 135.372 304.751 135.39C304.402 135.393 304.059 135.306 303.755 135.138C303.387 134.894 303.092 134.558 302.899 134.165C302.707 133.772 302.624 133.336 302.66 132.901C302.709 131.853 303.014 130.832 303.549 129.924C304.084 129.017 304.833 128.249 305.733 127.685C306.094 127.429 306.52 127.275 306.964 127.241C307.408 127.206 307.853 127.292 308.251 127.489C308.619 127.732 308.914 128.068 309.105 128.462C309.295 128.855 309.374 129.293 309.332 129.727C309.282 130.773 308.978 131.792 308.446 132.699C307.914 133.606 307.169 134.375 306.273 134.942ZM310.541 127.35C310.058 127.615 309.673 127.35 309.673 126.846C309.688 126.549 309.774 126.26 309.925 126.002C310.076 125.744 310.287 125.526 310.541 125.364C311.025 125.084 311.423 125.364 311.423 125.853C311.412 126.148 311.332 126.437 311.189 126.696C311.046 126.956 310.844 127.179 310.598 127.35H310.541Z" fill="white"/>
<path d="M424.665 57.2676L415.461 62.4832C414.927 62.8248 414.483 63.2851 414.164 63.8268C413.845 64.3686 413.661 64.9765 413.625 65.6013V71.1945C413.625 72.3271 414.451 72.8025 415.461 72.2292L420.938 69.125L423.086 71.2364C423.136 71.2824 423.199 71.3131 423.267 71.3246C423.335 71.3361 423.405 71.3281 423.468 71.3015C423.531 71.2748 423.585 71.2307 423.623 71.1745C423.662 71.1183 423.683 71.0524 423.683 70.9847V67.5589L424.665 66.9996C425.206 66.6627 425.659 66.2045 425.985 65.6625C426.312 65.1204 426.503 64.5101 426.543 63.8815V58.2883C426.543 57.1557 425.675 56.6943 424.665 57.2676Z" fill="white"/>
<path d="M310.925 145.737C315.734 143.052 319.632 145.234 319.632 150.631C319.459 153.583 318.581 156.454 317.068 159.009C315.555 161.565 313.451 163.734 310.925 165.341C306.103 168.138 302.205 165.886 302.205 160.447C302.366 157.491 303.241 154.615 304.758 152.057C306.274 149.499 308.388 147.333 310.925 145.737Z" fill="#37474F"/>
<path d="M328.253 139.151L357.147 122.763C358.854 121.798 360.234 122.483 360.234 124.287C360.159 125.306 359.84 126.293 359.304 127.167C358.767 128.042 358.028 128.78 357.147 129.321L328.253 145.709C326.56 146.674 325.18 145.988 325.18 144.185C325.255 143.167 325.572 142.182 326.106 141.307C326.64 140.433 327.375 139.694 328.253 139.151Z" fill="#37474F"/>
<g opacity="0.7">
<path opacity="0.7" d="M328.253 139.151L357.147 122.763C358.854 121.798 360.234 122.483 360.234 124.287C360.159 125.306 359.84 126.293 359.304 127.167C358.767 128.042 358.028 128.78 357.147 129.321L328.253 145.709C326.56 146.674 325.18 145.988 325.18 144.185C325.255 143.167 325.572 142.182 326.106 141.307C326.64 140.433 327.375 139.694 328.253 139.151Z" fill="white"/>
</g>
<path d="M327.286 150.771L347.103 139.584C348.27 138.927 349.209 139.389 349.209 140.633C349.158 141.331 348.941 142.007 348.575 142.607C348.209 143.207 347.705 143.714 347.103 144.087L327.286 155.273C326.119 155.93 325.18 155.455 325.18 154.21C325.232 153.515 325.45 152.841 325.816 152.244C326.181 151.646 326.685 151.142 327.286 150.771Z" fill="#37474F"/>
<g opacity="0.7">
<path opacity="0.7" d="M327.286 150.771L347.103 139.584C348.27 138.927 349.209 139.389 349.209 140.633C349.158 141.331 348.941 142.007 348.575 142.607C348.209 143.207 347.705 143.714 347.103 144.087L327.286 155.273C326.119 155.93 325.18 155.455 325.18 154.21C325.232 153.515 325.45 152.841 325.816 152.244C326.181 151.646 326.685 151.142 327.286 150.771Z" fill="white"/>
</g>
<path d="M310.925 292.752C315.734 290.068 319.632 292.263 319.632 297.646C319.459 300.598 318.581 303.469 317.068 306.025C315.555 308.581 313.451 310.75 310.925 312.356C306.103 315.153 302.205 312.902 302.205 307.462C302.37 304.507 303.246 301.632 304.762 299.075C306.279 296.518 308.391 294.351 310.925 292.752Z" fill="#37474F"/>
<path d="M328.253 286.181L357.147 269.779C358.854 268.814 360.234 269.499 360.234 271.303C360.159 272.322 359.84 273.308 359.304 274.183C358.767 275.058 358.028 275.796 357.147 276.337L328.253 292.739C326.56 293.703 325.18 293.018 325.18 291.2C325.257 290.186 325.575 289.203 326.109 288.331C326.643 287.459 327.377 286.723 328.253 286.181Z" fill="#37474F"/>
<g opacity="0.7">
<path opacity="0.7" d="M328.253 286.181L357.147 269.779C358.854 268.814 360.234 269.499 360.234 271.303C360.159 272.322 359.84 273.308 359.304 274.183C358.767 275.058 358.028 275.796 357.147 276.337L328.253 292.739C326.56 293.703 325.18 293.018 325.18 291.2C325.257 290.186 325.575 289.203 326.109 288.331C326.643 287.459 327.377 286.723 328.253 286.181Z" fill="white"/>
</g>
<path d="M327.286 297.786L347.103 286.6C348.27 285.943 349.209 286.404 349.209 287.649C349.158 288.347 348.941 289.023 348.575 289.623C348.209 290.223 347.705 290.73 347.103 291.103L327.286 302.289C326.119 302.946 325.18 302.471 325.18 301.24C325.23 300.542 325.447 299.866 325.812 299.266C326.178 298.666 326.683 298.159 327.286 297.786Z" fill="#37474F"/>
<g opacity="0.7">
<path opacity="0.7" d="M327.286 297.786L347.103 286.6C348.27 285.943 349.209 286.404 349.209 287.649C349.158 288.347 348.941 289.023 348.575 289.623C348.209 290.223 347.705 290.73 347.103 291.103L327.286 302.289C326.119 302.946 325.18 302.471 325.18 301.24C325.23 300.542 325.447 299.866 325.812 299.266C326.178 298.666 326.683 298.159 327.286 297.786Z" fill="white"/>
</g>
<path d="M308.222 173.479L417.637 111.395C419.344 110.43 420.724 111.213 420.724 113.143V220.545C420.666 221.598 420.356 222.623 419.82 223.536C419.284 224.45 418.536 225.226 417.637 225.803L308.222 288.25C306.515 289.215 305.149 288.432 305.149 286.502V178.722C305.205 177.672 305.512 176.65 306.046 175.738C306.58 174.827 307.326 174.053 308.222 173.479Z" fill="#F5F5F5"/>
<path d="M348.383 198.075C348.104 197.672 347.718 197.353 347.267 197.151C346.816 196.948 346.318 196.871 345.826 196.927C345.333 196.983 344.866 197.171 344.474 197.469C344.083 197.768 343.781 198.166 343.603 198.62L305.192 270.324V286.502C305.192 288.432 306.615 289.215 308.265 288.25L417.68 226.124C418.578 225.548 419.326 224.772 419.863 223.858C420.399 222.945 420.709 221.92 420.767 220.867V185.071L399.982 148.785C398.83 146.758 397.222 146.884 396.383 149.051L368.713 221.132L348.383 198.075Z" fill="#37474F"/>
<g opacity="0.3">
<path opacity="0.3" d="M348.383 198.075C348.104 197.672 347.718 197.353 347.267 197.151C346.816 196.948 346.318 196.871 345.826 196.927C345.333 196.983 344.866 197.171 344.474 197.469C344.083 197.768 343.781 198.166 343.603 198.62L305.192 270.324V286.502C305.192 288.432 306.615 289.215 308.265 288.25L417.68 226.124C418.578 225.548 419.326 224.772 419.863 223.858C420.399 222.945 420.709 221.92 420.767 220.867V185.071L399.982 148.785C398.83 146.758 397.222 146.884 396.383 149.051L368.713 221.132L348.383 198.075Z" fill="#00564C"/>
</g>
<path d="M316.687 202.535C326.332 197.096 334.171 183.84 334.171 172.934C334.171 167.34 332.123 163.509 328.865 161.747L308.222 173.451C307.326 174.025 306.58 174.799 306.046 175.71C305.512 176.622 305.205 177.644 305.149 178.695V204.059C308.222 205.416 312.248 204.996 316.687 202.535Z" fill="#37474F"/>
<g opacity="0.6">
<path opacity="0.6" d="M316.687 202.535C326.332 197.096 334.171 183.84 334.171 172.934C334.171 167.34 332.123 163.509 328.865 161.747L308.222 173.451C307.326 174.025 306.58 174.799 306.046 175.71C305.512 176.622 305.205 177.644 305.149 178.695V204.059C308.222 205.416 312.248 204.996 316.687 202.535Z" fill="white"/>
</g>
<path d="M308.222 321.054L417.637 258.956C419.344 257.991 420.724 258.676 420.724 260.494C420.647 261.51 420.327 262.494 419.791 263.367C419.254 264.239 418.517 264.974 417.637 265.514L308.222 327.612C306.515 328.577 305.149 327.891 305.149 326.074C305.222 325.058 305.538 324.073 306.072 323.201C306.606 322.328 307.343 321.593 308.222 321.054Z" fill="#37474F"/>
<g opacity="0.6">
<path opacity="0.6" d="M308.222 321.054L417.637 258.956C419.344 257.991 420.724 258.676 420.724 260.494C420.647 261.51 420.327 262.494 419.791 263.367C419.254 264.239 418.517 264.974 417.637 265.514L308.222 327.612C306.515 328.577 305.149 327.891 305.149 326.074C305.222 325.058 305.538 324.073 306.072 323.201C306.606 322.328 307.343 321.593 308.222 321.054Z" fill="white"/>
</g>
<path d="M308.222 334.17L417.637 272.114C419.344 271.149 420.724 271.834 420.724 273.652C420.647 274.668 420.327 275.652 419.791 276.524C419.254 277.396 418.517 278.132 417.637 278.672L308.222 340.77C306.515 341.734 305.149 341.049 305.149 339.231C305.216 338.209 305.53 337.216 306.064 336.336C306.599 335.456 307.338 334.713 308.222 334.17Z" fill="#37474F"/>
<g opacity="0.6">
<path opacity="0.6" d="M308.222 334.17L417.637 272.114C419.344 271.149 420.724 271.834 420.724 273.652C420.647 274.668 420.327 275.652 419.791 276.524C419.254 277.396 418.517 278.132 417.637 278.672L308.222 340.77C306.515 341.734 305.149 341.049 305.149 339.231C305.216 338.209 305.53 337.216 306.064 336.336C306.599 335.456 307.338 334.713 308.222 334.17Z" fill="white"/>
</g>
<path d="M325.095 115.017L403.155 70.761C405.545 69.3627 407.423 70.5093 407.423 73.208C407.349 74.6734 406.924 76.1009 406.182 77.3742C405.44 78.6475 404.403 79.7305 403.155 80.535L325.109 124.665C322.719 126.063 320.841 124.945 320.841 122.288C320.922 120.833 321.349 119.418 322.088 118.155C322.827 116.892 323.857 115.817 325.095 115.017Z" fill="#FAFAFA"/>
<path d="M554.438 198.956L559.972 208.925L551.365 216.182L543.469 203.892L554.438 198.956Z" fill="#F28F8F"/>
<path d="M533.667 176.737C539.159 176.737 545.205 178.75 547.282 182.987L555.818 200.382C555.818 200.382 550.967 207.373 543.27 206.87L533.667 176.737Z" fill="#E0E0E0"/>
<path d="M554.011 210.477C555.619 207.541 556.017 207.401 556.97 206.758C557.923 206.115 563.784 205.262 566.217 205.052C569.062 204.814 570.101 205.332 569.304 207.751C567.113 213.852 564.43 219.771 561.281 225.453C560.512 226.446 560.37 227.369 557.141 227.69C554.139 227.97 550.369 228.138 549.259 228.194C548.15 228.25 546.613 228.543 547.595 225.327C548.865 221.694 550.337 218.133 552.005 214.658C553.243 211.988 554.011 210.477 554.011 210.477Z" fill="#37474F"/>
<path d="M489.907 309.406C488.484 308.707 487.674 310.412 486.436 311.783C485.373 312.791 484.543 314.011 484.003 315.362C483.704 316.97 485.198 319.557 486.848 320.956C488.499 322.354 490.405 323.375 491.003 326.451C491.157 327.862 491.714 329.202 492.61 330.316C493.506 331.429 494.705 332.271 496.067 332.743C499.624 334.253 504.389 333.764 506.026 332.743C507.932 331.527 506.182 330.184 503.507 326.409C500.008 321.487 497.276 318.019 497.276 313.363L489.907 309.406Z" fill="#263238"/>
<path d="M492.71 305.365L489.864 309.56C489.251 310.417 489.008 311.478 489.189 312.511C489.37 313.544 489.961 314.464 490.832 315.069L490.917 315.139C491.792 315.649 492.821 315.843 493.826 315.688C494.832 315.532 495.75 315.036 496.423 314.286L500.918 309.476L492.71 305.365Z" fill="#FFA8A7"/>
<path d="M545.546 224.488C545.731 229.774 544.209 251.125 540.496 260.564C536.783 270.002 534.635 275.875 533.468 277.847C532.302 279.818 498.642 312.007 498.642 312.007C498.642 312.007 492.951 311.601 492.027 306.162C492.027 306.162 505.812 283.118 508.8 278.392C511.787 273.666 522.372 266.423 522.372 266.423L521.404 225.089L545.546 224.488Z" fill="#37474F"/>
<path d="M495.683 219.342C495.683 218.434 498.528 207.988 499.951 203.164L510.379 206.688L507.932 214.295L498.756 223.621C497.783 223.431 496.923 222.881 496.351 222.085C495.779 221.288 495.54 220.307 495.683 219.342Z" fill="#FFA8A7"/>
<path d="M538.131 336.975L545.248 335.385L542.891 325.2L535.775 326.79L538.131 336.975Z" fill="#FFA8A7"/>
<path d="M545.546 224.488H511.403C510.657 229.388 510.23 234.329 510.123 239.282C509.852 253.824 523.623 280.238 523.623 280.238C522.963 286.115 523.26 292.057 524.506 297.842C527.522 309.42 535.744 329.038 535.744 329.038C535.744 329.038 540.909 329.751 543.455 326.829C543.455 326.829 538.903 287.019 537.679 276.826C536.356 265.779 532.942 245.63 532.942 245.63C535.195 243.423 537.238 241.017 539.045 238.443C542.212 234.299 544.425 229.528 545.532 224.46" fill="#37474F"/>
<path d="M522.4 177.03C515.856 178.582 506.936 180.596 504.361 187.559C501.786 194.523 498.073 206.87 498.073 206.87C499.496 209.317 507.391 211.344 510.137 209.932L511.417 205.737V224.446C516.539 229.927 534.379 232.472 545.561 224.446V189.489C545.561 183.896 542.402 177.184 533.682 176.695L522.4 177.03Z" fill="#11B5E4"/>
<path d="M511.417 205.779L514.704 195.614L511.417 210.323V205.779Z" fill="#E0E0E0"/>
<path d="M519.939 148.463C519.352 148.399 518.758 148.466 518.201 148.66C517.644 148.854 517.139 149.169 516.724 149.582C515.301 150.98 515.628 153.539 516.724 159.454L520.992 159.929L519.939 148.463Z" fill="#263238"/>
<path d="M544.849 146.757C545.746 146.767 546.636 146.6 547.467 146.268C548.776 145.527 549.117 146.995 548.392 148.268C547.918 149.179 547.214 149.957 546.347 150.524C545.48 151.092 544.479 151.432 543.441 151.512C543.441 151.33 542.217 148.226 542.217 148.226L544.849 146.757Z" fill="#263238"/>
<path d="M521.945 159.929C521.319 160.307 520.408 159.104 519.626 158.307C519.32 157.96 518.928 157.695 518.489 157.538C518.05 157.381 517.577 157.337 517.115 157.41C516.654 157.482 516.218 157.67 515.851 157.954C515.484 158.239 515.197 158.61 515.017 159.035C513.722 161.719 516.667 165.299 518.402 166.473C518.883 166.887 519.486 167.14 520.122 167.195C520.759 167.25 521.397 167.105 521.945 166.781L522.4 177.058C523.167 178.705 524.336 180.139 525.802 181.234C527.269 182.33 528.989 183.052 530.808 183.337C536.954 184.148 535.687 179.142 533.653 176.737V173.003C535.191 173.323 536.771 173.398 538.333 173.227C539.13 173.017 541.037 170.752 542.274 168.207C544.899 163.112 545.483 157.234 543.91 151.736C541.705 142.535 531.647 142.255 525.658 145.961C519.669 149.666 521.945 159.929 521.945 159.929Z" fill="#FFA8A7"/>
<path d="M521.945 160.978C521.632 160.978 520.423 159.007 519.626 158.307C518.53 157.329 519.939 148.519 519.939 148.519C519.637 147.573 519.576 146.567 519.762 145.592C519.948 144.617 520.375 143.701 521.006 142.926C523.168 140.689 527.351 141.067 530.409 140.969C534.173 140.983 537.899 140.246 541.364 138.801C545.717 136.942 546.044 136.732 546.571 138.606C546.991 140.154 547.043 141.777 546.722 143.348C546.402 144.92 545.717 146.397 544.721 147.666L543.299 149.932C543.299 149.932 541.975 151.022 537.921 151.512C533.866 152.001 526.952 149.848 526.085 149.736C524.904 149.582 524.662 150.701 524.022 153.763C523.481 156.406 523.026 160.964 521.945 160.978Z" fill="#263238"/>
<path d="M519.953 149.163L516.112 147.135C516.235 146.889 516.406 146.668 516.616 146.487C516.825 146.306 517.069 146.167 517.334 146.078C517.598 145.99 517.878 145.954 518.156 145.972C518.435 145.99 518.707 146.062 518.957 146.184C519.485 146.456 519.883 146.919 520.069 147.475C520.255 148.031 520.214 148.636 519.953 149.163Z" fill="#263238"/>
<path d="M533.653 173.003C531.036 172.51 528.469 171.785 525.985 170.836C524.821 170.232 523.866 169.303 523.239 168.165C523.54 169.307 524.072 170.377 524.804 171.311C526.227 173.143 533.653 174.486 533.653 174.486V173.003Z" fill="#F28F8F"/>
<path d="M533.838 159.734C533.842 160.035 533.725 160.326 533.512 160.544C533.298 160.761 533.007 160.887 532.7 160.894C532.547 160.891 532.396 160.857 532.256 160.796C532.116 160.735 531.989 160.648 531.883 160.539C531.778 160.43 531.695 160.301 531.64 160.161C531.585 160.02 531.558 159.87 531.562 159.72C531.558 159.418 531.675 159.127 531.888 158.91C532.101 158.692 532.393 158.566 532.7 158.559C532.853 158.563 533.004 158.596 533.144 158.657C533.284 158.718 533.411 158.806 533.517 158.915C533.622 159.024 533.705 159.152 533.76 159.293C533.815 159.433 533.842 159.583 533.838 159.734Z" fill="#263238"/>
<path d="M532.629 155.497L530.196 156.895C530.104 156.733 530.045 156.554 530.024 156.37C530.002 156.185 530.019 155.998 530.072 155.82C530.125 155.642 530.213 155.475 530.332 155.331C530.451 155.187 530.599 155.067 530.765 154.979C531.085 154.818 531.455 154.782 531.8 154.878C532.146 154.974 532.442 155.195 532.629 155.497Z" fill="#263238"/>
<path d="M533.141 167.242L535.744 168.207C535.616 168.543 535.361 168.817 535.033 168.973C534.704 169.129 534.328 169.155 533.98 169.046C533.804 168.982 533.643 168.885 533.505 168.76C533.368 168.634 533.257 168.484 533.179 168.316C533.101 168.148 533.057 167.967 533.051 167.783C533.044 167.599 533.075 167.415 533.141 167.242Z" fill="#F28F8F"/>
<path d="M543.996 156.434L541.776 154.756C541.999 154.473 542.324 154.284 542.684 154.23C543.044 154.175 543.412 154.258 543.711 154.462C543.863 154.572 543.99 154.711 544.087 154.87C544.183 155.029 544.247 155.206 544.273 155.389C544.299 155.573 544.289 155.76 544.241 155.939C544.193 156.118 544.11 156.286 543.996 156.434Z" fill="#263238"/>
<path d="M543.313 159.412C543.317 159.714 543.199 160.005 542.986 160.222C542.773 160.439 542.482 160.565 542.175 160.572C542.021 160.569 541.87 160.536 541.73 160.475C541.59 160.414 541.464 160.326 541.358 160.217C541.252 160.108 541.17 159.979 541.114 159.839C541.059 159.698 541.033 159.548 541.037 159.398C541.033 159.096 541.15 158.805 541.363 158.588C541.576 158.371 541.868 158.245 542.175 158.237C542.483 158.248 542.774 158.377 542.987 158.597C543.2 158.816 543.317 159.109 543.313 159.412Z" fill="#263238"/>
<path d="M537.949 159.272L536.882 165.928L540.624 165.495L537.949 159.272Z" fill="#F28F8F"/>
<path d="M544.437 331.988L544.209 330.981C544.949 331.121 548.15 336.337 551.322 338.602C554.793 341.077 557.795 342.545 559.346 343.664C561.423 345.16 558.421 348.222 553.314 348.502C550.782 348.628 546.201 347.872 544.778 346.544C543.355 345.216 542.331 343.02 541.193 342.07C540.055 341.119 537.793 340.28 537.01 339.063C536.592 337.855 536.441 336.572 536.569 335.302C536.569 333.988 536.669 332.505 537.124 332.575L537.295 333.33C538.614 333.992 540.083 334.314 541.563 334.267C542.801 334.211 545.034 333.946 544.437 331.988Z" fill="#263238"/>
<path d="M536.797 270.058C536.797 270.058 533.767 248.902 532.956 245.63C535.39 244.323 537.655 242.732 539.699 240.89C538.289 242.873 536.749 244.765 535.09 246.553L536.797 270.058Z" fill="#263238"/>
<path d="M518.516 269.317C518.516 269.317 522.158 278.224 523.638 280.196C523.638 280.196 523.268 286.991 523.31 288.362L521.404 289.997C521.354 286.923 521.641 283.853 522.258 280.839C520.585 277.144 519.331 273.281 518.516 269.317Z" fill="#263238"/>
<path d="M507.974 214.295C507.974 214.295 536.669 217.315 540.041 216.294C543.412 215.274 547.936 211.988 550.312 210.589C552.688 209.191 554.495 209.107 554.495 209.681C554.495 210.254 552.418 213.372 551.948 214.672C551.479 215.973 554.182 215.973 557.753 215.162C561.323 214.351 562.746 212.365 563.671 213.512C564.595 214.658 561.693 220.503 555.775 222.699C549.857 224.894 545.461 223.426 540.567 223.635C535.673 223.845 505.528 225.733 498.742 223.635C498.562 222.566 498.686 221.469 499.1 220.465C499.515 219.461 500.203 218.589 501.089 217.944C503.139 216.327 505.473 215.09 507.974 214.295Z" fill="#FFA8A7"/>
<path d="M348.896 349.019C348.967 348.11 350.716 338.322 351.911 332.841L363.62 336.365L361.742 344.041L352.011 353.298C351.031 353.117 350.16 352.571 349.579 351.773C348.999 350.976 348.754 349.989 348.896 349.019Z" fill="#FFA8A7"/>
<path d="M374.56 266.157H380.25C384.45 266.157 388.477 267.796 391.447 270.715C394.416 273.634 396.084 277.592 396.084 281.72V321.375H358.726V281.72C358.726 277.592 360.394 273.634 363.364 270.715C366.333 267.796 370.36 266.157 374.56 266.157Z" fill="#263238"/>
<path d="M405.531 328.45L411.065 338.42L402.443 345.663L394.562 333.372L405.531 328.45Z" fill="#F28F8F"/>
<path d="M384.76 306.218C390.252 306.218 396.298 308.231 398.375 312.468L406.911 329.862C406.911 329.862 402.059 336.854 394.363 336.365L384.76 306.218Z" fill="#455A64"/>
<path d="M389.199 478.724C391.089 481.208 393.213 483.512 395.544 485.603C395.918 485.899 396.215 486.277 396.412 486.708C396.653 487.435 396.966 489.183 393.68 489.896C392.014 490.255 390.289 490.257 388.622 489.903C386.956 489.548 385.386 488.845 384.02 487.841C381.616 485.939 381.901 482.597 379.681 480.402C378.031 478.794 375.798 478.164 374.56 476.207C373.692 474.809 374.162 473.145 374.944 471.089C375.726 469.034 376.281 467.16 377.035 467.426L376.779 468.46C377.562 470.096 382.47 471.131 384.874 470.348C386.168 473.211 387.611 476.007 389.199 478.724Z" fill="#263238"/>
<path d="M391.133 481.129C390.465 480.36 389.81 479.577 389.199 478.724C387.94 476.665 386.814 474.531 385.827 472.334C385.186 471.025 385.074 469.525 385.514 468.139L387.136 462.755L378.6 460.826L376.751 468.362C376.352 470.082 377.618 471.788 379.937 474.277C382.256 476.766 384.931 482.247 387.05 483.8C389.17 485.352 390.906 485.505 391.987 484.974C393.068 484.443 393.339 483.953 391.133 481.129Z" fill="#FFA8A7"/>
<path d="M366.237 483.464V482.275C366.721 483.674 368.912 489.63 372.241 492.623C374.901 494.986 378.515 497.74 379.425 500.383C380.336 503.026 374.403 504.061 371.928 503.627C368.625 503.083 365.595 501.486 363.307 499.083C361.884 497.363 360.974 495.321 359.949 493.965C358.925 492.609 356.592 491.168 356.051 489.546C355.88 488.085 356.04 486.605 356.521 485.212C356.919 483.813 357.332 482.149 357.844 482.275V483.254C359.062 484.187 360.568 484.68 362.112 484.652C363.278 484.652 366.252 484.387 366.237 483.464Z" fill="#263238"/>
<path d="M374.645 494.706L372.241 492.609C370.011 490.287 368.271 487.554 367.119 484.569C366.537 483.19 366.237 481.713 366.237 480.22V475.508H357.844V483.17V483.38C358.242 485.1 362.112 489.658 364.288 492.637C366.073 495.196 368.795 496.98 371.885 497.615C375.086 498.034 376.751 497.055 374.645 494.706Z" fill="#FFA8A7"/>
<path d="M359.508 355.157C353.007 369.14 359.75 418.374 359.75 418.374C359.551 420.653 356.905 425.114 355.938 435.153C354.771 446.955 357.759 476.57 357.759 476.57C359.044 477.312 360.495 477.73 361.984 477.789C363.473 477.847 364.953 477.544 366.294 476.906C366.294 476.906 374.304 432.287 375.812 420.555L380.62 382.913L387.733 419.646C385.83 422.525 384.256 425.601 383.039 428.819C381.346 434.007 377.917 463.566 377.917 463.566C379.074 464.606 380.457 465.372 381.961 465.806C383.465 466.239 385.05 466.33 386.595 466.069C386.595 466.069 403.027 425.519 403.767 417.241C404.208 412.277 396.838 353.172 396.838 353.172L359.508 355.157Z" fill="#37474F"/>
<path d="M380.563 382.857L381.701 374.775C381.701 374.775 390.65 372.957 394.704 369.182C391.905 372.408 388.244 374.8 384.134 376.09L382.939 383.892L384.362 401.972L380.563 382.857Z" fill="#263238"/>
<path d="M371.06 306.595C368.665 307.168 366.43 308.262 364.522 309.796C362.614 311.33 361.081 313.266 360.035 315.46C358.499 318.797 358.356 322.592 359.636 326.031L365.37 342.573C365.37 342.573 362.652 349.047 359.48 355.157C374.09 363.17 392.314 358.961 396.71 353.116C396.895 351.871 396.639 346.278 396.995 339.93C397.365 333.148 398.318 325.486 397.237 321.305C395.217 313.517 391.447 306.218 383.949 306.218L371.06 306.595Z" fill="#F03E3D"/>
<path d="M368.827 306.595C363.847 307.28 356.535 308.273 354.003 319.907C351.471 331.541 350.717 335.805 350.717 335.805C352.34 337.371 354.274 338.592 356.399 339.39C358.523 340.189 360.793 340.549 363.065 340.448L365.64 331.499L368.827 306.595Z" fill="#455A64"/>
<path d="M371.658 316.411C370.798 316.411 369.947 316.245 369.153 315.922C368.359 315.598 367.638 315.125 367.03 314.527C366.423 313.93 365.941 313.221 365.612 312.441C365.283 311.66 365.114 310.824 365.114 309.979V291.256H371.658V316.411Z" fill="#263238"/>
<path d="M389.953 273.582C391.93 274.728 394.363 279.608 394.121 289.83C393.922 298.499 391.062 300.652 389.626 301.268C388.189 301.883 385.429 301.505 382.74 301.058V306.259C382.74 306.259 386.453 310.454 386.225 312.901C385.998 315.348 380.848 315.852 377.362 313.516C375.117 311.916 373.189 309.926 371.672 307.644V295.059C371.389 295.4 371.039 295.682 370.644 295.89C370.249 296.097 369.816 296.225 369.37 296.267C368.924 296.308 368.474 296.263 368.046 296.132C367.618 296.002 367.221 295.789 366.878 295.507C363.904 293.563 363.79 288.767 365.526 287.117C367.262 285.467 370.975 285.942 371.672 288.319C375.188 288.168 378.61 287.159 381.63 285.383C383.869 284.205 385.792 282.52 387.239 280.468C388.686 278.416 389.616 276.056 389.953 273.582Z" fill="#FFA8A7"/>
<path d="M384.276 287.662C384.279 287.876 384.217 288.086 384.099 288.266C383.982 288.446 383.812 288.587 383.613 288.673C383.414 288.759 383.194 288.786 382.979 288.75C382.765 288.714 382.566 288.616 382.407 288.47C382.249 288.324 382.137 288.135 382.087 287.927C382.037 287.718 382.05 287.5 382.125 287.3C382.2 287.099 382.333 286.924 382.508 286.797C382.683 286.67 382.892 286.597 383.11 286.586C383.259 286.58 383.407 286.604 383.546 286.655C383.686 286.706 383.814 286.784 383.922 286.884C384.031 286.984 384.118 287.105 384.179 287.238C384.239 287.372 384.273 287.516 384.276 287.662Z" fill="#263238"/>
<path d="M384.575 295.003L387.15 295.814C387.104 295.985 387.024 296.144 386.914 296.283C386.804 296.422 386.666 296.537 386.509 296.622C386.352 296.707 386.179 296.76 386.001 296.777C385.822 296.795 385.642 296.776 385.471 296.723C385.125 296.605 384.839 296.36 384.672 296.04C384.505 295.719 384.471 295.348 384.575 295.003Z" fill="#F28F8F"/>
<path d="M393.367 284.306L391.133 282.782C391.227 282.633 391.351 282.505 391.497 282.404C391.643 282.304 391.808 282.234 391.983 282.199C392.157 282.164 392.337 282.164 392.511 282.199C392.686 282.234 392.851 282.304 392.997 282.405C393.297 282.614 393.502 282.928 393.571 283.283C393.64 283.637 393.567 284.004 393.367 284.306Z" fill="#263238"/>
<path d="M392.855 286.865C392.874 287.16 392.775 287.45 392.578 287.673C392.38 287.895 392.102 288.032 391.802 288.054C391.504 288.058 391.215 287.948 390.998 287.747C390.78 287.546 390.65 287.27 390.636 286.977C390.628 286.834 390.649 286.691 390.698 286.555C390.747 286.42 390.823 286.296 390.92 286.19C391.018 286.083 391.136 285.997 391.268 285.935C391.4 285.873 391.543 285.838 391.688 285.831C391.834 285.823 391.98 285.844 392.117 285.892C392.255 285.94 392.381 286.014 392.49 286.11C392.598 286.207 392.686 286.323 392.749 286.452C392.811 286.582 392.847 286.722 392.855 286.865Z" fill="#263238"/>
<path d="M387.62 286.25L387.805 292.808L391.318 291.731L387.62 286.25Z" fill="#F28F8F"/>
<path d="M382.74 301.058C379.895 300.694 374.062 299.044 373.151 296.779C373.514 297.929 374.23 298.94 375.2 299.673C376.936 301.142 382.74 302.806 382.74 302.806V301.058Z" fill="#F28F8F"/>
<path d="M405.09 339.958C406.697 337.022 407.096 336.896 408.063 336.253C409.03 335.609 414.877 334.742 417.31 334.533C420.155 334.295 421.194 334.812 420.397 337.245C418.179 343.34 415.477 349.255 412.317 354.934C411.548 355.94 411.392 356.863 408.177 357.171C404.962 357.479 401.391 357.618 400.281 357.688C399.171 357.758 397.635 358.024 398.631 354.808C399.899 351.176 401.367 347.615 403.027 344.139C404.321 341.496 405.09 339.958 405.09 339.958Z" fill="#37474F"/>
<path d="M361.742 344.097C361.742 344.097 387.762 346.796 391.133 345.775C394.505 344.754 399.029 341.44 401.462 340.07C403.895 338.7 405.644 338.588 405.644 339.147C405.644 339.707 403.567 342.853 403.084 344.139C402.6 345.426 405.331 345.439 408.888 344.628C412.445 343.817 413.881 341.832 414.82 342.979C415.759 344.125 412.843 349.97 406.925 352.165C401.007 354.361 396.611 352.906 391.717 353.102C386.823 353.298 358.797 355.451 352.011 353.354C351.832 352.285 351.956 351.188 352.37 350.184C352.784 349.179 353.472 348.307 354.358 347.663C356.553 346.002 359.063 344.789 361.742 344.097Z" fill="#FFA8A7"/>
<path d="M363.62 337.525C364.736 334.553 365.686 331.524 366.465 328.45C366.465 328.45 365.996 335.204 364.061 338.825L363.62 337.525Z" fill="#37474F"/>
<path d="M153.084 254.369L148.46 264.185L157.067 271.428L164.508 259.082L153.084 254.369Z" fill="#F28F8F"/>
<path d="M174.31 231.913C168.818 231.913 162.772 233.941 160.695 238.163C158.618 242.386 152.159 255.572 152.159 255.572C152.159 255.572 157.011 262.563 164.707 262.06L174.31 231.913Z" fill="#37474F"/>
<path d="M198.125 387.668H190.528V398.532H198.125V387.668Z" fill="#FFA8A7"/>
<path d="M171.415 374.225L163.823 374.482L164.203 385.34L171.795 385.084L171.415 374.225Z" fill="#FFA8A7"/>
<path d="M197.612 281.594C197.612 288.725 198.551 334.813 198.551 334.813C198.736 336.854 200.685 340.644 200.259 348.516C199.69 359.213 198.751 388.926 198.751 388.926C198.751 388.926 195.194 392.394 190.215 388.926C190.215 388.926 183.329 348.544 181.978 337.945C180.783 328.702 178.777 303.575 178.777 303.575L171.735 333.149C171.735 333.149 172.972 340.14 173.257 345.006C173.541 349.872 171.962 378.271 171.962 378.271C170.731 379.026 169.321 379.452 167.871 379.506C166.421 379.56 164.982 379.24 163.697 378.579C163.697 378.579 157.608 337.162 156.826 332.729C156.043 328.297 162.16 281.594 162.16 281.594H197.612Z" fill="#37474F"/>
<path d="M186.189 232.249H186.303C189.561 233.054 192.452 234.908 194.515 237.516C196.578 240.123 197.693 243.334 197.684 246.637V281.594C192.363 287.285 173.812 289.984 162.118 281.594V245.239C162.118 239.436 165.404 232.444 174.466 231.927L186.189 232.249Z" fill="#02897A"/>
<path d="M188.749 202.507C189.36 202.44 189.977 202.51 190.556 202.711C191.135 202.912 191.661 203.239 192.093 203.668C193.515 205.066 193.231 207.793 192.093 213.931L187.654 214.435L188.749 202.507Z" fill="#263238"/>
<path d="M162.843 200.801C161.891 200.804 160.947 200.619 160.069 200.256C158.647 199.487 158.348 201.011 159.088 202.326C159.583 203.274 160.318 204.082 161.222 204.672C162.127 205.262 163.17 205.615 164.252 205.695C164.252 205.514 165.518 202.298 165.518 202.298L162.843 200.801Z" fill="#263238"/>
<path d="M186.658 214.434C187.327 214.826 188.266 213.581 189.077 212.743C189.394 212.379 189.802 212.102 190.26 211.937C190.719 211.773 191.212 211.727 191.693 211.805C192.175 211.882 192.628 212.079 193.009 212.378C193.391 212.677 193.687 213.067 193.871 213.512C195.294 216.308 192.15 220.028 190.357 221.244C189.854 221.675 189.225 221.938 188.561 221.996C187.896 222.053 187.23 221.903 186.658 221.566L186.189 232.249C185.392 233.962 184.176 235.456 182.65 236.595C181.123 237.735 179.333 238.485 177.44 238.779C171.052 239.632 172.375 234.458 174.466 231.913V228.026C172.873 228.366 171.235 228.451 169.615 228.277C168.776 228.054 166.77 225.691 165.504 223.048C164.081 220.084 161.677 214.826 163.811 205.919C166.101 196.341 176.614 196.047 182.789 199.906C188.963 203.766 186.658 214.434 186.658 214.434Z" fill="#FFA8A7"/>
<path d="M186.658 215.525C187 215.525 188.252 213.484 189.077 212.729C190.215 211.708 188.749 202.493 188.749 202.493C188.749 202.493 189.902 199.011 187.654 196.69C185.406 194.369 181.039 194.761 177.852 194.649C173.942 194.672 170.068 193.906 166.471 192.398C161.947 190.468 161.606 190.244 161.051 192.188C160.612 193.798 160.557 195.486 160.89 197.121C161.223 198.755 161.935 200.292 162.971 201.612L165.219 202.423C165.219 202.423 166.428 203.486 170.654 203.989C174.55 204.273 178.464 204.203 182.348 203.78C183.571 203.612 183.77 204.772 184.496 207.974C185.065 210.771 185.549 215.511 186.658 215.525Z" fill="#263238"/>
<path d="M188.735 203.234L192.733 201.123C192.606 200.859 192.426 200.623 192.203 200.429C191.981 200.236 191.721 200.089 191.439 199.997C191.156 199.906 190.858 199.871 190.562 199.897C190.266 199.922 189.979 200.006 189.717 200.144C189.181 200.437 188.781 200.921 188.598 201.496C188.415 202.071 188.464 202.694 188.735 203.234Z" fill="#263238"/>
<path d="M174.48 228.026C177.207 227.523 179.879 226.769 182.461 225.775C183.677 225.148 184.669 224.173 185.307 222.978C184.996 224.165 184.444 225.278 183.685 226.25C182.177 228.152 174.466 229.55 174.466 229.55L174.48 228.026Z" fill="#F28F8F"/>
<path d="M175.903 212.98C175.909 213.212 175.984 213.437 176.119 213.627C176.255 213.816 176.444 213.962 176.663 214.047C176.883 214.131 177.123 214.149 177.353 214.1C177.584 214.05 177.794 213.935 177.958 213.768C178.121 213.601 178.231 213.391 178.273 213.163C178.316 212.935 178.288 212.7 178.195 212.487C178.102 212.274 177.946 212.093 177.749 211.967C177.551 211.841 177.32 211.775 177.084 211.778C176.766 211.785 176.463 211.916 176.242 212.141C176.021 212.366 175.899 212.668 175.903 212.98Z" fill="#263238"/>
<path d="M177.155 208.59L179.702 209.988C179.878 209.645 179.915 209.248 179.803 208.879C179.692 208.51 179.442 208.196 179.104 208.003C178.937 207.913 178.754 207.857 178.565 207.838C178.376 207.819 178.185 207.837 178.003 207.892C177.822 207.947 177.653 208.037 177.507 208.157C177.362 208.276 177.242 208.424 177.155 208.59Z" fill="#263238"/>
<path d="M175.988 220.88L173.285 221.887C173.345 222.065 173.44 222.23 173.565 222.371C173.69 222.512 173.842 222.627 174.013 222.709C174.185 222.791 174.371 222.839 174.561 222.849C174.751 222.859 174.941 222.832 175.121 222.768C175.487 222.627 175.784 222.351 175.946 221.998C176.108 221.645 176.123 221.244 175.988 220.88Z" fill="#F28F8F"/>
<path d="M165.333 209.554L167.623 207.793C167.513 207.64 167.373 207.51 167.211 207.411C167.049 207.313 166.868 207.247 166.68 207.218C166.491 207.189 166.299 207.198 166.114 207.244C165.929 207.29 165.755 207.372 165.603 207.485C165.296 207.73 165.096 208.081 165.046 208.466C164.996 208.852 165.098 209.242 165.333 209.554Z" fill="#263238"/>
<path d="M166.044 212.659C166.04 212.972 166.162 213.273 166.383 213.498C166.604 213.724 166.907 213.854 167.225 213.861C167.547 213.854 167.853 213.722 168.077 213.494C168.3 213.267 168.424 212.961 168.42 212.645C168.438 212.481 168.421 212.315 168.37 212.158C168.318 212 168.234 211.856 168.122 211.733C168.01 211.61 167.873 211.512 167.719 211.444C167.566 211.377 167.4 211.342 167.232 211.342C167.064 211.342 166.898 211.377 166.745 211.444C166.592 211.512 166.454 211.61 166.342 211.733C166.23 211.856 166.146 212 166.094 212.158C166.043 212.315 166.026 212.481 166.044 212.645V212.659Z" fill="#263238"/>
<path d="M172.09 211.554L171.692 218.559L167.979 217.315L172.09 211.554Z" fill="#F28F8F"/>
<path d="M190.528 394.841V393.764C189.802 394.072 188.109 400.406 185.107 403.105C182.703 405.244 179.417 407.733 178.606 410.096C177.795 412.459 183.158 413.956 185.392 413.564C187.995 413.117 192.505 411.313 193.629 409.649C194.753 407.985 195.294 405.524 196.204 404.293C197.115 403.063 199.248 401.707 199.746 400.294C199.893 398.973 199.742 397.637 199.305 396.379C198.95 395.065 198.58 393.583 198.125 393.736C198.125 393.89 198.125 394.547 198.125 394.547C197.044 395.385 195.702 395.83 194.326 395.806C193.231 395.89 190.514 395.68 190.528 394.841Z" fill="#263238"/>
<path d="M164.138 383.026C163.74 383.026 163.412 383.585 162.545 384.508C161.249 385.803 159.738 386.872 158.077 387.668C155.232 389.066 149.712 391.22 147.209 392.324C145.658 393.023 145.786 394.869 147.337 395.932C148.887 396.995 152.856 397.75 157.537 396.715C160.083 396.156 163.412 393.848 165.504 393.918C167.595 393.988 171.536 394.016 173.086 392.967C174.637 391.919 174.025 389.668 173.584 387.738C173.143 385.808 172.418 382.424 171.706 382.564V383.221C170.796 384.62 166.144 385.137 164.138 384.144V383.026Z" fill="#263238"/>
<path d="M153.98 265.668C152.373 262.717 151.974 262.592 151.007 261.948C150.04 261.305 144.193 260.438 141.76 260.242C138.915 260.005 137.876 260.522 138.673 262.941C140.876 269.038 143.558 274.956 146.696 280.643C147.465 281.636 147.621 282.559 150.836 282.867C154.051 283.174 157.622 283.314 158.732 283.384C159.842 283.454 161.378 283.72 160.382 280.504C159.111 276.873 157.644 273.312 155.986 269.835C154.82 267.192 153.98 265.668 153.98 265.668Z" fill="#37474F"/>
<path d="M212.294 274.533C212.223 273.61 209.449 263.179 208.026 258.354L197.612 261.878L200.059 269.471L209.221 278.797C210.192 278.61 211.053 278.063 211.625 277.269C212.197 276.475 212.437 275.495 212.294 274.533Z" fill="#FFA8A7"/>
<path d="M200.017 269.471C200.017 269.471 171.308 272.491 167.936 271.47C164.565 270.45 160.041 267.136 157.608 265.765C155.175 264.395 153.425 264.283 153.425 264.857C153.425 265.43 155.503 268.548 155.986 269.834C156.47 271.121 153.738 271.135 150.182 270.324C146.625 269.513 145.188 267.527 144.249 268.674C143.311 269.82 146.227 275.665 152.145 277.861C158.063 280.056 162.459 278.602 167.353 278.797C172.247 278.993 202.393 280.895 209.179 278.797C209.359 277.73 209.235 276.635 208.82 275.633C208.406 274.631 207.717 273.762 206.831 273.12C204.799 271.514 202.491 270.278 200.017 269.471Z" fill="#FFA8A7"/>
<path d="M188.593 233.046C193.103 234.514 202.051 235.255 204.939 244.847C207.827 254.439 209.278 260.662 209.278 260.662C207.571 262.899 200.742 265.486 197.612 264.521L188.593 233.046Z" fill="#455A64"/>
<path d="M197.613 264.521L194.525 253.754L197.613 268.912V264.521Z" fill="#37474F"/>
<path d="M132.854 287.145C132.712 287.327 131.503 289.299 131.503 289.299L125.94 297.129L120.52 305.113C120.349 305.356 120.104 305.54 119.821 305.638C119.537 305.736 119.229 305.743 118.941 305.658L118.571 305.533C116.693 304.847 113.876 303.687 110.135 301.995C107.133 300.597 107.289 300.191 107.289 299.688C107.25 299.288 107.25 298.885 107.289 298.485C107.901 297.339 109.793 294.472 112.34 290.851C116.864 284.391 119.04 281.524 120.392 279.664C120.585 279.393 120.869 279.198 121.195 279.113C121.521 279.029 121.866 279.061 122.17 279.203C124.603 280 129.539 282.083 132.129 283.118H132.242C133.637 283.859 132.868 287.089 132.854 287.145Z" fill="#37474F"/>
<path d="M132.996 286.893L131.574 289.298L126.139 297.283L120.449 305.071C120.278 305.314 120.033 305.498 119.749 305.596C119.466 305.694 119.158 305.701 118.87 305.616L118.5 305.491C116.622 304.805 113.805 303.645 110.064 301.953C107.062 300.555 107.218 300.149 107.218 299.646C107.179 299.246 107.179 298.843 107.218 298.443C110.064 299.674 119.069 303.869 119.368 303.715C120.079 303.379 126.182 293.759 129.426 288.851C131.047 286.404 131.773 285.369 132.271 284.53C132.362 284.43 132.43 284.312 132.47 284.183C132.51 284.055 132.521 283.919 132.502 283.786C132.483 283.652 132.435 283.525 132.361 283.412C132.286 283.299 132.188 283.204 132.072 283.132H131.958C132.277 283.298 132.553 283.534 132.763 283.823C132.973 284.112 133.111 284.445 133.167 284.796C133.322 285.131 133.388 285.5 133.358 285.866C133.328 286.233 133.204 286.587 132.996 286.893Z" fill="#37474F"/>
<path opacity="0.1" d="M132.996 286.893L131.574 289.298L126.139 297.283L120.449 305.071C120.278 305.314 120.033 305.498 119.749 305.596C119.466 305.694 119.158 305.701 118.87 305.616L118.5 305.491C116.622 304.805 113.805 303.645 110.064 301.953C107.062 300.555 107.218 300.149 107.218 299.646C107.179 299.246 107.179 298.843 107.218 298.443C110.064 299.674 119.069 303.869 119.368 303.715C120.079 303.379 126.182 293.759 129.426 288.851C131.047 286.404 131.773 285.369 132.271 284.53C132.362 284.43 132.43 284.312 132.47 284.183C132.51 284.055 132.521 283.919 132.502 283.786C132.483 283.652 132.435 283.525 132.361 283.412C132.286 283.299 132.188 283.204 132.072 283.132H131.958C132.277 283.298 132.553 283.534 132.763 283.823C132.973 284.112 133.111 284.445 133.167 284.796C133.322 285.131 133.388 285.5 133.358 285.866C133.328 286.233 133.204 286.587 132.996 286.893Z" fill="black"/>
<path d="M120.463 281.496L130.45 285.607L119.809 301.156L109.879 296.667L120.463 281.496Z" fill="#FAFAFA"/>
<path d="M117.66 335.679C120.392 334.91 124.518 324.927 127.619 313.601C130.72 302.274 132.356 299.772 132.456 296.206C132.555 292.64 132.299 287.956 132.299 287.956L126.893 295.717C126.659 294.219 126.178 292.77 125.471 291.424C124.774 290.026 123.465 288.921 122.398 289.76C121.829 290.207 123.337 292.123 123.01 296.402C122.983 298.107 123.155 299.81 123.522 301.477L113.478 325.388L117.66 335.679Z" fill="#FFA8A7"/>
<path d="M77.2433 286.097C74.0708 285.216 71.3821 286.88 69.8883 291.843C67.2698 301.189 65.3676 310.715 64.1978 320.34C63.771 323.794 63.2873 327.989 66.6447 328.311C69.2054 328.562 76.6031 327.164 77.8977 325.906C79.6333 324.256 79.3204 317.6 79.3204 317.6H75.4793C75.4793 317.6 76.3044 312.356 76.5462 310.762C77.3998 305.407 78.666 298.653 78.666 298.653L77.2433 286.097Z" fill="#F28F8F"/>
<path d="M95.8656 281.188L94.571 292.389L83.3322 293.675L84.954 278.811L95.8656 281.188Z" fill="#FFA8A7"/>
<path d="M71.8089 264.843C72.7336 254.495 78.4384 250.244 82.8485 249.21C91.7542 247.154 100.546 250.091 104.188 256.201C105.022 258.115 105.451 260.174 105.451 262.256C105.451 264.337 105.022 266.397 104.188 268.31C102.253 272.645 71.8515 264.815 71.8515 264.815" fill="#263238"/>
<path d="M104.743 270.408C104.743 270.408 106.35 274.672 105.924 274.994C105.253 275.232 104.545 275.355 103.832 275.358L104.743 270.408Z" fill="#FFA8A7"/>
<path d="M99.9486 256.928C102.068 258.718 105.639 261.962 104.686 270.911C103.633 280.168 101.357 282.671 99.8205 283.566C98.7962 284.167 94.258 283.118 92.1525 281.902C89.5349 280.378 83.7305 276.448 81.9665 271.149C79.8752 264.913 80.9279 257.474 85.5088 255.53C87.8397 254.544 90.3868 254.156 92.912 254.4C95.4373 254.645 97.8582 255.515 99.9486 256.928Z" fill="#FFA8A7"/>
<path d="M102.566 257.166C102.612 259.641 102.089 262.094 101.037 264.343C99.9858 266.591 98.432 268.579 96.4916 270.156C96.4916 270.156 95.1685 266.786 92.2237 267.555C89.2788 268.324 89.3784 272.142 91.4839 274.211C92.0298 274.803 92.7361 275.229 93.5198 275.439C94.3036 275.65 95.1322 275.636 95.9083 275.4C95.4885 278.045 94.2287 280.492 92.309 282.391C89.2455 283.084 86.0455 282.913 83.0761 281.899C80.1068 280.885 77.4885 279.068 75.5219 276.658C69.0205 268.981 70.941 256.788 81.0987 253.195C84.6902 251.778 88.6186 251.4 92.4217 252.103C96.2248 252.807 99.7443 254.563 102.566 257.166Z" fill="#263238"/>
<path d="M81.9807 449.696L86.8319 456.323C84.6221 457.306 82.2145 457.784 79.7899 457.722C75.4508 457.89 74.2558 456.491 74.0993 456.156C73.3596 454.604 74.5119 451.821 74.8249 449.43L81.9807 449.696Z" fill="#263238"/>
<path d="M86.5331 453.122C86.5331 453.122 92.4086 452.744 96.4916 452.241C100.575 451.737 103.775 453.639 102.822 455.331C101.869 457.023 99.6214 458.351 96.1359 459.526C93.1626 460.519 89.5776 461.232 86.462 462.141C83.3464 463.049 81.2267 464.168 79.42 463.539C77.3998 462.854 76.5747 462.057 76.7027 460.616C77.1434 458.563 77.6895 456.533 78.3388 454.534L86.5331 453.122Z" fill="#263238"/>
<path d="M74.0993 443.012C74.0993 443.012 74.8248 449.025 74.8817 450.325C74.9386 451.625 80.8568 452.031 81.9949 449.668L82.1799 442.313L74.0993 443.012Z" fill="#F28F8F"/>
<path d="M80.0602 446.717L77.9973 455.848C77.9973 455.848 77.784 456.953 82.6351 457.666C87.4863 458.379 95.0547 455.177 96.3493 454.534C97.6439 453.89 97.772 452.59 93.0346 452.842C88.2972 453.093 86.6043 453.121 86.6043 453.121L88.155 449.066L80.0602 446.717Z" fill="#FFA8A7"/>
<path d="M74.0993 324.479C70.0448 330.674 66.2037 336.127 65.3785 343.091C63.6429 357.801 69.3335 374.608 70.5427 385.487C68.2423 388.582 66.9122 392.271 66.7158 396.1C66.7158 400.602 74.0993 443.012 74.0993 443.012C74.0993 443.012 79.4626 444.62 82.1656 442.313L87.2444 364.289L84.5699 354.794L74.0993 324.479Z" fill="#455A64"/>
<path d="M87.2444 364.288L84.5699 354.794C79.5361 353.508 74.6784 351.63 70.1017 349.201C70.1017 349.201 72.8474 354.095 80.6861 356.78L84.769 368.987L85.1247 396.952L87.2444 364.288Z" fill="#37474F"/>
<path d="M74.0993 324.479C71.9369 327.947 66.7443 333.904 67.854 339.609C69.1912 346.6 72.9754 351.396 84.5699 354.794L95.4388 393.485C95.4388 393.485 89.7483 398.7 88.0554 403.65C86.3624 408.6 80.0602 446.717 80.0602 446.717C80.0602 446.717 81.9949 449.822 88.1123 449.067C88.1123 449.067 109.452 401.259 110.874 398.183C112.695 395.034 113.334 391.358 112.681 387.794C111.998 382.788 104.743 327.947 104.743 327.947L74.0993 324.479Z" fill="#455A64"/>
<path d="M72.1219 289.564C72.5579 288.423 73.3797 287.465 74.4494 286.849C75.5191 286.233 76.7717 285.997 77.9973 286.18C85.58 288.208 97.3736 290.879 99.6072 291.522C99.6072 291.522 98.5971 305.882 107.332 310.944C106.92 314.146 104.7 327.947 104.7 327.947C104.7 327.947 94.2012 332.953 85.5658 330.492C76.9304 328.031 74.0282 324.479 74.0282 324.479L78.2961 317.558C77.3714 315.307 73.8006 307.658 71.4959 300.555C70.6962 296.902 70.9125 293.106 72.1219 289.564Z" fill="#FFB900"/>
<path d="M77.2433 314.831C80.835 316.955 84.5988 318.783 88.4964 320.298C84.9539 320.208 81.4909 319.247 78.4241 317.502L77.2433 314.831Z" fill="#E0E0E0"/>
<path d="M107.147 309.867C104.044 308.469 101.491 306.112 99.8775 303.156C100.139 305.427 100.931 307.609 102.192 309.53C103.454 311.451 105.149 313.059 107.147 314.23V309.867Z" fill="#E0E0E0"/>
<path d="M99.6783 291.522C104.444 292.92 107.403 293.367 109.978 295.633C113.364 298.625 116.864 315.544 117.575 319.04C118.813 325.095 120.178 331.387 118.841 334.211C117.874 336.253 112.61 337.777 110.305 331.177C109.822 329.779 109.722 329.136 109.295 327.877C107.119 321.557 103.847 309.476 103.847 309.476C103.847 309.476 97.4021 305.98 99.6783 291.522Z" fill="#FFA8A7"/>
<path d="M76.5747 253.195C74.8818 254.16 71.8231 255.096 69.9168 263.836C68.3648 271.167 67.4416 278.613 67.1569 286.096C67.228 288.809 72.947 296.346 85.0109 295.633C97.0749 294.92 101.457 287.97 101.457 287.97C101.457 287.97 95.5242 285.593 95.9937 275.386C95.9937 275.386 93.9024 279.427 88.1692 277.399C82.436 275.372 76.5747 253.195 76.5747 253.195Z" fill="#263238"/>
</svg>
